<?xml version="1.0" encoding="utf-8"?>
<!-- Generator: Adobe Illustrator 26.0.1, SVG Export Plug-In . SVG Version: 6.00 Build 0)  -->
<svg version="1.1" id="Layer_1" xmlns="http://www.w3.org/2000/svg" xmlns:xlink="http://www.w3.org/1999/xlink" x="0px" y="0px"
	 viewBox="0 0 600 333.3" style="enable-background:new 0 0 600 333.3;" xml:space="preserve">
<style type="text/css">
	.st0{fill-rule:evenodd;clip-rule:evenodd;fill:#B3FBE3;}
</style>
<path class="st0" d="M58.4,0.4h484.8c31.8,0,57.6,25.8,57.6,57.6v218.1c0,31.8-25.8,57.6-57.6,57.6H58.4
	c-31.8,0-57.6-25.8-57.6-57.6V58C0.7,26.2,26.5,0.4,58.4,0.4z"/>
<path fill="black" d="M64.4,165.6c0.4-8.8-6.4-16.3-15.2-16.7c-8.8-0.4-16.3,6.4-16.7,15.2c0,0.5,0,1,0,1.5c-0.2,8.7,6.8,16,15.5,16.1
	c0.1,0,0.3,0,0.4,0c8.7,0.1,15.8-6.8,15.9-15.5C64.4,166,64.4,165.8,64.4,165.6z M64.4,193.8v-7.2c-4.6,5.4-11.4,8.4-18.5,8.2
	c-15.5,0.1-28.1-12.3-28.2-27.8c0-0.4,0-0.8,0-1.2c-0.4-15.7,12.1-28.8,27.8-29.2c0.2,0,0.5,0,0.7,0c6.9-0.1,13.6,2.9,18.1,8.1v-7.2
	h14.5v56.4H64.4z"/>
<path fill="black" d="M148.9,181.2c-5,0-6.4-1.8-6.4-6.5v-25h9.2v-12.3h-9.2v-13.7h-14.8v13.7h-19v-3.3c0-4.7,1.9-6.6,7-6.6h3.3v-10.9h-7.2
	c-12.2,0-17.9,3.8-17.9,15.5v5.4h-8.1v12.1h8.2v44.1h14.8v-44.1h19v27.7c0,11.5,4.6,16.5,16.5,16.5h7.6v-12.6H148.9z"/>
<path fill="black" d="M201.8,160.5c-1.1-7.1-7.4-12.1-14.5-11.7c-7.1-0.3-13.4,4.7-14.8,11.7H201.8z M172.4,169.3c0.7,7.7,7.4,13.4,15.1,13.1
	c5.6,0.2,10.8-2.5,13.8-7.2h15.1c-3.6,12-14.5,19.6-29.3,19.6c-17.7,0-30.1-12-30.1-29s13.1-29.3,30.4-29.3
	c15.9-0.6,29.3,11.7,29.9,27.6c0,0.5,0,1.1,0,1.6c0,1.2-0.1,2.4-0.3,3.6H172.4z"/>
<path fill="black" d="M311.5,165.6c-0.1-8.8-7.3-15.9-16.1-15.8c-8.8,0.1-15.9,7.3-15.8,16.1c0.1,8.7,7.2,15.8,15.9,15.8
	c8.8,0,15.9-7.1,15.9-15.9C311.5,165.7,311.5,165.6,311.5,165.6z M265.1,137.4h14.5v7.2c4.6-5.4,11.4-8.5,18.5-8.3
	c15.6,0,28.2,12.6,28.2,28.2c0,0.3,0,0.5,0,0.8c0.4,15.7-12.1,28.8-27.8,29.2c-0.2,0-0.5,0-0.7,0c-6.7,0.2-13.2-2.6-17.7-7.6v29.9
	h-15V137.4z"/>
<path fill="black" d="M378.1,165.6c-0.1-8.8-7.3-15.8-16.1-15.7c-8.8,0.1-15.8,7.3-15.7,16.1c0.1,8.7,7.2,15.7,15.9,15.7
	c8.6,0.1,15.8-6.7,15.9-15.4C378.1,166.1,378.1,165.8,378.1,165.6z M378.1,193.8v-7.2c-4.6,5.4-11.4,8.4-18.5,8.2
	c-15.5,0.1-28.1-12.3-28.3-27.8c0-0.4,0-0.8,0-1.2c-0.4-15.7,12.1-28.8,27.8-29.2c0.2,0,0.5,0,0.7,0c6.9-0.1,13.6,2.9,18.1,8.1v-7.2
	h14.5v56.4H378.1z"/>
<path fill="black" d="M239.2,142.9c2.8-4.3,7.6-6.7,12.6-6.6c2.1,0,4.3,0.5,6.2,1.3v14.5c-3.1-1.8-6.7-2.7-10.4-2.6c-5.1,1-8.7,5.7-8.1,10.9v33.4
	h-14.9v-56.5h14.5V142.9z"/>
<path fill="black" d="M459.9,137.4l-36.2,79.4h-15.3l14.3-30.7l-24.1-48.7h17.4l14.1,32.6l14.5-32.6H459.9z"/>
<path fill="black" d="M575.9,136.1l-35.8-20.2c-7.6-4.4-17.3-1.8-21.7,5.8c-1.3,2.3-2,4.8-2.1,7.4v2.1c0,1.9,1.1,3.6,2.7,4.5l6.8,3.6
	c1.4,0.8,3.3,0.3,4.1-1.1c0.2-0.4,0.4-0.9,0.4-1.4V132c0.2-2,2-3.4,4-3.2c0.4,0,0.8,0.2,1.2,0.3l31.2,17.4c1.6,0.9,2.2,2.9,1.3,4.5
	c-0.3,0.5-0.7,1-1.3,1.3l-31.2,17.4c-1.8,0.9-4,0.1-4.8-1.7c-0.2-0.4-0.3-0.8-0.3-1.2V164c-0.3-8.8-7.6-15.6-16.4-15.4
	c-2.6,0.1-5.2,0.8-7.4,2.1l-36,20c-7.3,3.9-10.1,13-6.1,20.3c1.4,2.6,3.5,4.8,6.1,6.1l35.8,20.2c7.6,4.4,17.3,1.8,21.7-5.8
	c1.3-2.3,2-4.8,2.1-7.4v-2.1c0-1.9-1-3.6-2.7-4.5l-6.8-3.6c-1.4-0.8-3.3-0.3-4.1,1.1c-0.2,0.4-0.4,0.9-0.4,1.4v5.1
	c0,1.9-1.6,3.4-3.5,3.3c-0.6,0-1.2-0.2-1.7-0.5l-31.2-17.3c-1.6-0.9-2.2-2.9-1.3-4.5c0.3-0.5,0.7-1,1.3-1.3l31.4-17.7
	c1.8-0.9,4-0.1,4.8,1.7c0.2,0.4,0.3,0.7,0.3,1.1v2.7c0.3,8.8,7.6,15.7,16.4,15.4c2.6-0.1,5.2-0.8,7.4-2.1l36-20
	c7.3-3.9,10.1-13,6.1-20.3c-1.4-2.6-3.5-4.8-6.1-6.1H575.9z"/>
</svg>
