<?xml version="1.0" encoding="utf-8"?>
<!-- Generator: Adobe Illustrator 26.0.1, SVG Export Plug-In . SVG Version: 6.00 Build 0)  -->
<svg version="1.1" id="Layer_1" xmlns="http://www.w3.org/2000/svg" xmlns:xlink="http://www.w3.org/1999/xlink" x="0px" y="0px"
	 viewBox="0 0 600 333.3" style="enable-background:new 0 0 600 333.3;" xml:space="preserve">
<style type="text/css">
	.st0{fill-rule:evenodd;clip-rule:evenodd;fill:#13A8E0;}
	.st1{fill:#FFFFFF;}
</style>
<path class="st0" d="M46.1,0.4h508.8c25.2,0,45.6,20.4,45.6,45.6v242.2c0,25.2-20.4,45.6-45.6,45.6H46.1
	c-25.2,0-45.6-20.4-45.6-45.6V46C0.5,20.8,20.9,0.4,46.1,0.4z"/>
<g id="Logo" transform="translate(0.000000, 24.000000)">
	<g id="amex">
		<path id="Shape" class="st1" d="M72.1,95.5l-10.7-27l-10.7,27H72.1z M308.5,84.8c-2.2,1.4-4.7,1.4-7.8,1.4h-19V71.1H301
			c2.7,0,5.6,0.1,7.4,1.2c2,1,3.3,3.1,3.3,6C311.7,81.3,310.5,83.7,308.5,84.8z M444.4,95.5l-10.9-27l-10.8,27H444.4z M191.1,124.8
			H175l-0.1-53.1l-22.7,53.1h-13.8l-22.8-53.2v53.2H83.7l-6-15.1H45.1L39,124.8h-17L50,57h23.3l26.7,64.2V57h25.6l20.5,46L165,57
			h26.1L191.1,124.8L191.1,124.8z M255.1,124.8h-52.4V57h52.4v14.1h-36.7v12.2h35.8v13.9h-35.8v13.5h36.7V124.8L255.1,124.8z
			 M329,75.2c0,10.8-7,16.4-11,18.1c3.4,1.4,6.4,3.7,7.8,5.7c2.2,3.4,2.6,6.4,2.6,12.4v13.3h-15.8l-0.1-8.6c0-4.1,0.4-10-2.5-13.2
			c-2.3-2.4-5.8-2.9-11.4-2.9h-16.8v24.7H266V57h36.1c8,0,13.9,0.2,19,3.2C326,63.3,329,67.7,329,75.2z M354.1,124.8h-16V57h16
			V124.8z M539.7,124.8h-22.2l-29.7-50.9v50.9h-31.9l-6.1-15.1h-32.6l-5.9,15.1h-18.3c-7.6,0-17.3-1.7-22.7-7.5
			c-5.5-5.8-8.4-13.6-8.4-25.9c0-10.1,1.7-19.3,8.5-26.5c5.1-5.4,13-7.9,23.8-7.9h15.2v14.5h-14.9c-5.7,0-9,0.9-12.1,4
			c-2.7,2.9-4.5,8.3-4.5,15.4c0,7.3,1.4,12.5,4.3,15.9c2.4,2.7,6.8,3.5,10.9,3.5h7L422.2,57h23.5l26.5,64.2V57h23.9l27.6,47.2V57
			h16.1V124.8z M21.8,138.1h26.8l6-15.1h13.5l6,15.1h52.7v-11.5l4.7,11.6h27.4l4.7-11.7v11.7h131l-0.1-24.7h2.5
			c1.8,0.1,2.3,0.2,2.3,3.3v21.5h67.8v-5.8c5.5,3,14,5.8,25.2,5.8h28.5l6.1-15.1h13.5l6,15.1h54.9v-14.3l8.3,14.3h44V43.5h-43.6
			v11.2L504,43.5h-44.7v11.2l-5.6-11.2h-60.4c-10.1,0-19,1.5-26.2,5.5v-5.5h-41.7V49c-4.6-4.2-10.8-5.5-17.7-5.5H155.6L145.4,68
			l-10.5-24.4h-48v11.2l-5.3-11.2H40.8l-19,45V138.1L21.8,138.1z"/>
		<path id="Shape_00000170991929438033901000000004010038065096564374_" class="st1" d="M579.7,188.2h-28.6c-2.9,0-4.7,0.1-6.3,1.2
			c-1.7,1.1-2.3,2.7-2.3,4.9c0,2.6,1.4,4.3,3.4,5.1c1.7,0.6,3.4,0.8,6,0.8l8.5,0.2c8.6,0.2,14.3,1.7,17.8,5.5c0.6,0.5,1,1.1,1.5,1.7
			V188.2z M579.7,232.9c-3.8,5.8-11.2,8.7-21.3,8.7h-30.3V227h30.2c3,0,5.1-0.4,6.3-1.7c1.1-1,1.9-2.6,1.9-4.4c0-2-0.8-3.5-1.9-4.5
			c-1.1-1-2.8-1.5-5.5-1.5c-14.7-0.5-33.1,0.5-33.1-21c0-9.8,6-20.2,22.5-20.2h31.2v-13.5h-29c-8.8,0-15.1,2.2-19.6,5.5v-5.5h-42.9
			c-6.9,0-14.9,1.8-18.7,5.5v-5.5h-76.7v5.5c-6.1-4.6-16.4-5.5-21.1-5.5H321v5.5c-4.8-4.8-15.6-5.5-22.1-5.5h-56.6l-12.9,14.5
			l-12.1-14.5h-84.5v94.7h82.9l13.3-14.7l12.6,14.7l51.1,0v-22.3h5c6.8,0.1,14.8-0.2,21.8-3.3v25.6h42.2v-24.7h2
			c2.6,0,2.9,0.1,2.9,2.8v21.9h128.1c8.1,0,16.6-2.2,21.3-6.1v6.1h40.6c8.5,0,16.7-1.2,23-4.4V232.9z M517.1,205.8
			c3.1,3.3,4.7,7.4,4.7,14.4c0,14.6-8.8,21.4-24.6,21.4h-30.5V227h30.4c3,0,5.1-0.4,6.4-1.7c1.1-1,1.9-2.6,1.9-4.4
			c0-2-0.8-3.5-1.9-4.5c-1.2-1-2.9-1.5-5.6-1.5c-14.7-0.5-33,0.5-33-21c0-9.8,6-20.2,22.4-20.2h31.4v14.4h-28.8
			c-2.9,0-4.7,0.1-6.3,1.2c-1.7,1.1-2.4,2.7-2.4,4.9c0,2.6,1.5,4.3,3.4,5.1c1.7,0.6,3.4,0.8,6.1,0.8l8.4,0.2
			C507.7,200.6,513.6,202.1,517.1,205.8z M375.6,201.6c-2.1,1.3-4.7,1.4-7.7,1.4h-19v-15.2h19.3c2.8,0,5.6,0.1,7.5,1.2
			c2,1.1,3.2,3.2,3.2,6.1S377.7,200.3,375.6,201.6z M385.1,210.1c3.5,1.3,6.3,3.7,7.7,5.7c2.2,3.3,2.5,6.4,2.6,12.4v13.5h-15.7v-8.5
			c0-4.1,0.4-10.1-2.5-13.3c-2.3-2.4-5.8-3-11.5-3h-16.8v24.8h-15.8v-67.9h36.2c7.9,0,13.7,0.4,18.9,3.2c4.9,3.1,8.1,7.3,8.1,15.1
			C396.2,202.8,389.2,208.4,385.1,210.1z M404.9,173.7h52.3v14h-36.7v12.3h35.8V214h-35.8v13.5l36.7,0.1v14.1h-52.3V173.7
			L404.9,173.7z M299.1,205.1h-20.3v-17.3h20.4c5.7,0,9.6,2.4,9.6,8.3C308.9,202,305.1,205.1,299.1,205.1z M263.2,235.4l-24.1-27.6
			l24.1-26.8V235.4z M201,227.5h-38.6V214h34.4v-13.8h-34.4v-12.3h39.3l17.2,19.8L201,227.5z M325.7,196.1
			c0,18.8-13.6,22.7-27.3,22.7h-19.6v22.8h-30.5l-19.3-22.5L209,241.6h-62.1v-67.9h63.1l19.3,22.2l19.9-22.2h50.1
			C311.7,173.7,325.7,177.3,325.7,196.1z"/>
	</g>
</g>
</svg>
