<?xml version="1.0" encoding="utf-8"?>
<!-- Generator: Adobe Illustrator 26.0.1, SVG Export Plug-In . SVG Version: 6.00 Build 0)  -->
<svg version="1.1" id="Layer_1" xmlns="http://www.w3.org/2000/svg" xmlns:xlink="http://www.w3.org/1999/xlink" x="0px" y="0px"
	 viewBox="0 0 600 333.3" style="enable-background:new 0 0 600 333.3;" xml:space="preserve">
<style type="text/css">
	.st0{fill-rule:evenodd;clip-rule:evenodd;fill:#10427A;}
	.st1{fill:none;}
	.st2{fill:#FFFFFF;}
	.st3{fill:#FF5F00;}
	.st4{fill:#EB001B;}
	.st5{fill:#F79E1B;}
</style>
<path class="st0" d="M46.1,0.4h508.8c25.2,0,45.6,20.4,45.6,45.6v242.2c0,25.2-20.4,45.6-45.6,45.6H46.1
	c-25.2,0-45.6-20.4-45.6-45.6V46C0.5,20.8,20.9,0.4,46.1,0.4z"/>
<path class="st1" d="M78-16.8h444v366H78V-16.8z"/>
<g>
	<path class="st2" d="M183.8,305.7v-18.1c0.2-3.1-0.9-6.1-3.1-8.3c-2.2-2.2-5.2-3.4-8.3-3.2c-4.1-0.3-8,1.7-10.1,5.1
		c-2-3.3-5.7-5.3-9.5-5.1c-3.4-0.2-6.6,1.5-8.5,4.3v-3.6H138v28.9h6.3v-15.9c-0.3-2,0.4-4,1.7-5.5s3.3-2.3,5.3-2.2
		c4.2,0,6.3,2.7,6.3,7.6v16.1h6.3v-16c-0.3-2,0.4-4,1.7-5.5c1.4-1.5,3.3-2.3,5.3-2.2c4.3,0,6.3,2.7,6.3,7.6v16.1L183.8,305.7z
		 M277.6,276.8h-10.3V268H261v8.8h-5.7v5.7h5.9v13.3c0,6.7,2.6,10.7,10,10.7c2.8,0,5.5-0.8,7.9-2.2l-1.8-5.4c-1.7,1-3.6,1.6-5.6,1.6
		c-3,0-4.2-1.9-4.2-4.8v-13.2h10.3L277.6,276.8z M331.2,276c-3.1-0.1-6,1.5-7.6,4.2v-3.5h-6.2v28.9h6.3v-16.2c0-4.8,2.1-7.4,6-7.4
		c1.3,0,2.7,0.2,3.9,0.7l1.9-6c-1.4-0.5-2.9-0.8-4.5-0.8L331.2,276z M250.2,279.1c-3.6-2.1-7.6-3.2-11.8-3c-7.3,0-12.1,3.5-12.1,9.2
		c0,4.7,3.5,7.6,10,8.5l3,0.4c3.4,0.5,5.1,1.4,5.1,3c0,2.2-2.3,3.5-6.6,3.5c-3.4,0.1-6.8-1-9.6-3l-3,4.9c3.7,2.6,8,3.9,12.5,3.7
		c8.3,0,13.2-3.9,13.2-9.4s-3.8-7.7-10.1-8.6l-3-0.4c-2.7-0.4-4.9-0.9-4.9-2.8s2.1-3.4,5.5-3.4c3.2,0,6.3,0.9,9.1,2.5L250.2,279.1z
		 M418.5,276c-3.1-0.1-6,1.5-7.6,4.2v-3.5h-6.2v28.9h6.3v-16.2c0-4.8,2.1-7.4,6-7.4c1.3,0,2.7,0.2,3.9,0.7l1.9-6
		c-1.4-0.5-2.9-0.8-4.5-0.8L418.5,276z M337.5,291.2c-0.2,4.1,1.4,8.1,4.4,11c2.9,2.9,6.9,4.4,11,4.1c3.8,0.2,7.5-1,10.4-3.4l-3-5.1
		c-2.2,1.7-4.8,2.6-7.6,2.6c-4.8-0.4-8.5-4.4-8.5-9.2c0-4.8,3.7-8.9,8.5-9.2c2.7,0,5.4,0.9,7.6,2.6l3-5.1c-2.9-2.4-6.6-3.6-10.4-3.4
		c-4.1-0.2-8.1,1.3-11,4.1C339,283.1,337.4,287.1,337.5,291.2L337.5,291.2z M396.4,291.2v-14.4h-6.3v3.5c-2.2-2.8-5.5-4.4-9.1-4.2
		c-8.3,0-15.1,6.8-15.1,15.1c0,8.3,6.8,15.1,15.1,15.1c3.5,0.1,6.9-1.4,9.1-4.2v3.5h6.3V291.2z M373,291.2c0.3-4.7,4.3-8.4,9-8.2
		c4.7,0.2,8.5,4.1,8.4,8.9s-3.9,8.6-8.7,8.6c-2.4,0-4.7-1-6.4-2.7C373.7,295.9,372.8,293.6,373,291.2z M297.2,276
		c-8.3,0.1-15,7-14.9,15.3s7,15,15.3,14.9c4.3,0.2,8.6-1.2,12-3.9l-3-4.7c-2.4,1.9-5.3,3-8.4,3c-4.3,0.4-8.1-2.8-8.6-7.1H311
		c0-0.8,0-1.6,0-2.4C311,282.1,305.4,276.1,297.2,276L297.2,276z M297.2,281.7c1.9,0,3.7,0.7,5.1,2s2.2,3.1,2.2,5h-15.1
		C289.6,284.7,293,281.6,297.2,281.7L297.2,281.7z M454.6,291.2v-26h-6v15.1c-2.2-2.8-5.5-4.4-9.1-4.2c-8.3,0-15.1,6.8-15.1,15.1
		c0,8.3,6.8,15.1,15.1,15.1c3.5,0.1,6.9-1.4,9.1-4.2v3.5h6V291.2z M465,301.5c0.4,0,0.8,0.1,1.1,0.2c0.3,0.1,0.7,0.3,0.9,0.6
		c0.3,0.3,0.5,0.6,0.6,0.9c0.3,0.7,0.3,1.5,0,2.2c-0.2,0.3-0.4,0.6-0.6,0.9c-0.3,0.3-0.6,0.5-0.9,0.6c-0.4,0.2-0.8,0.2-1.1,0.2
		c-1.2,0-2.2-0.7-2.7-1.8c-0.3-0.7-0.3-1.5,0-2.2c0.2-0.3,0.4-0.6,0.6-0.9c0.3-0.3,0.6-0.5,0.9-0.6
		C464.3,301.5,464.7,301.4,465,301.5L465,301.5z M465,306.6c0.3,0,0.6-0.1,0.9-0.2s0.5-0.3,0.7-0.5c0.8-0.9,0.8-2.2,0-3
		c-0.2-0.2-0.4-0.4-0.7-0.5c-0.3-0.1-0.6-0.2-0.9-0.2s-0.6,0.1-0.9,0.2s-0.5,0.3-0.7,0.5c-0.8,0.9-0.8,2.2,0,3
		c0.2,0.2,0.5,0.4,0.7,0.5C464.5,306.5,464.8,306.6,465,306.6L465,306.6z M465.2,303c0.3,0,0.6,0.1,0.8,0.2c0.2,0.2,0.3,0.4,0.3,0.6
		s-0.1,0.4-0.2,0.5c-0.2,0.2-0.4,0.3-0.6,0.3l0.9,1h-0.7l-0.8-1h-0.3v1H464V303H465.2z M464.6,303.5v0.7h0.7c0.1,0,0.2,0,0.4,0
		c0-0.1,0-0.2,0-0.3c0-0.1,0-0.2,0-0.3c-0.1,0-0.2,0-0.4,0L464.6,303.5z M431.3,291.2c0.3-4.7,4.3-8.4,9-8.2
		c4.7,0.2,8.5,4.1,8.4,8.9c-0.1,4.7-3.9,8.6-8.7,8.6c-2.4,0-4.7-1-6.4-2.7C432,296,431.2,293.6,431.3,291.2z M219.2,291.2v-14.4
		h-6.3v3.5c-2.2-2.8-5.5-4.4-9.1-4.2c-8.3,0-15.1,6.8-15.1,15.1c0,8.3,6.8,15.1,15.1,15.1c3.5,0.1,6.9-1.4,9.1-4.2v3.5h6.3V291.2z
		 M195.8,291.2c0.3-4.7,4.3-8.4,9-8.2s8.5,4.1,8.4,8.9c-0.1,4.7-3.9,8.6-8.7,8.6c-2.4,0-4.8-0.9-6.4-2.7S195.6,293.6,195.8,291.2
		L195.8,291.2z"/>
	<g transform="translate(20 7)">
		<path class="st3" d="M229,42h95.3v172.2H229V42z"/>
		<path class="st4" d="M235.1,128.1c0-33.6,15.3-65.3,41.6-86.1C232,6.8,167.9,11.9,129.4,53.8s-38.5,106.6,0,148.5
			s102.7,47.1,147.3,11.8C250.4,193.5,235.1,161.7,235.1,128.1z"/>
		<path class="st5" d="M452.9,128.1c0,41.9-23.8,80.2-61.3,98.5s-82.1,13.5-114.9-12.4c26.3-20.8,41.6-52.5,41.6-86.1
			S303,62.8,276.7,42c32.8-25.9,77.4-30.7,114.9-12.4S452.9,86.2,452.9,128.1L452.9,128.1z M442.5,195.9v-3.5h1.4v-0.7h-3.6v0.7h1.5
			v3.5H442.5z M449.5,195.9v-4.3h-1.1l-1.3,3l-1.3-3h-1v4.3h0.8v-3.2l1.2,2.8h0.8l1.2-2.8v3.2H449.5z"/>
	</g>
</g>
</svg>
