<?xml version="1.0" encoding="utf-8"?>
<!-- Generator: Adobe Illustrator 26.0.1, SVG Export Plug-In . SVG Version: 6.00 Build 0)  -->
<svg version="1.1" id="Layer_1" xmlns="http://www.w3.org/2000/svg" xmlns:xlink="http://www.w3.org/1999/xlink" x="0px" y="0px"
	 viewBox="0 0 600 333.3" style="enable-background:new 0 0 600 333.3;" xml:space="preserve">
<style type="text/css">
	.st0{fill-rule:evenodd;clip-rule:evenodd;fill:#E8EBF0;}
	.st1{filter:url(#Adobe_OpacityMaskFilter);}
	.st2{fill-rule:evenodd;clip-rule:evenodd;fill:#FFFFFF;}
	.st3{mask:url(#b_00000000192729604778841040000012840747823120579766_);}
	.st4{fill-rule:evenodd;clip-rule:evenodd;fill:#182E66;}
</style>
<path class="st0" d="M46.1,0.4h508.8c25.2,0,45.6,20.4,45.6,45.6v242.2c0,25.2-20.4,45.6-45.6,45.6H46.1
	c-25.2,0-45.6-20.4-45.6-45.6V46C0.5,20.8,20.9,0.4,46.1,0.4z"/>
<defs>
	<filter id="Adobe_OpacityMaskFilter" filterUnits="userSpaceOnUse" x="56" y="87.6" width="494" height="158.1">
		<feColorMatrix  type="matrix" values="1 0 0 0 0  0 1 0 0 0  0 0 1 0 0  0 0 0 1 0"/>
	</filter>
</defs>
<mask maskUnits="userSpaceOnUse" x="56" y="87.6" width="494" height="158.1" id="b_00000000192729604778841040000012840747823120579766_">
	<g class="st1">
		<path id="a_00000030476812552703265980000005237260491031571860_" class="st2" d="M-3.3-30.9h606c14.6,0,26.3,11.8,26.3,26.3
			v342.5c0,14.6-11.8,26.3-26.3,26.3h-606c-14.6,0-26.3-11.8-26.3-26.3V-4.6C-29.6-19.1-17.8-30.9-3.3-30.9z"/>
	</g>
</mask>
<g class="st3">
	<path class="st4" d="M300.6,90.4l-33,152.9h-39.9l33-152.9L300.6,90.4z M468.5,189.1l21-57.4l12.1,57.4H468.5z M513.1,243.3H550
		L517.8,90.4h-34c-7.7,0-14.1,4.4-17,11.2l-59.9,141.7h41.9l8.3-22.8h51.2L513.1,243.3z M408.9,193.4c0.2-40.3-56.3-42.6-55.9-60.6
		c0.1-5.5,5.4-11.3,16.9-12.8c5.7-0.7,21.5-1.3,39.4,6.8l7-32.4c-9.6-3.4-22-6.8-37.3-6.8c-39.5,0-67.2,20.8-67.4,50.5
		c-0.3,22,19.8,34.3,34.9,41.6c15.6,7.5,20.8,12.3,20.7,19c-0.1,10.3-12.4,14.8-23.9,15c-20.1,0.3-31.7-5.4-41-9.7l-7.2,33.5
		c9.3,4.2,26.6,7.9,44.4,8.1C381.3,245.7,408.8,225.2,408.9,193.4z M243.6,90.4l-64.7,152.9h-42.2l-31.8-122
		c-1.9-7.5-3.6-10.3-9.5-13.4c-9.6-5.2-25.4-10-39.4-13l0.9-4.4h67.9c8.7,0,16.4,5.7,18.4,15.6l16.8,88.5l41.5-104.1H243.6z"/>
</g>
</svg>
